<svg width="600" height="115" viewBox="0 0 600 115" fill="none" xmlns="http://www.w3.org/2000/svg">
<g clip-path="url(#clip0_44_53)">
<path d="M57.4502 0C89.2225 8.18402e-05 115 25.8 115 57.5C115 89.2 89.2225 115 57.4502 115C25.7777 115 0 89.3 0 57.5C0 25.8 25.6778 0 57.4502 0ZM56.251 15.0996C48.9575 15.1996 42.8628 15.9997 38.167 17.5996C33.571 19.0996 30.174 21.3002 27.876 24.2002C23.0803 30.4001 24.2793 38.4996 25.5781 44.0996C26.7771 49.2996 29.5748 54.3002 32.2725 59.2002C38.6668 70.7 41.7635 78.0999 32.4717 84.2998C30.7732 85.3998 29.0748 86 27.2764 86C23.6795 86 19.4832 84.1996 17.2852 83.0996L17.7842 84.0996C22.3802 90.9996 28.2759 94.7002 34.8701 94.7002C37.7675 94.7001 40.7651 93.9995 43.8623 92.5996C47.1592 91.0996 50.0565 88.4995 52.0547 85.0996C54.0528 81.6997 54.7525 77.9997 54.2529 74.7998C53.5535 71.8999 52.0542 68.0002 50.2559 63.4004C45.6599 51.5005 39.3663 35.3004 44.8613 27.4004C47.1593 24.1004 51.2556 22.4004 57.4502 22.4004C63.6447 22.4004 67.7411 24.1004 70.0391 27.4004C75.4341 35.3005 69.1396 51.5005 64.6436 63.4004C62.8452 68.0001 61.3469 71.8999 60.6475 74.7998C60.048 78.0998 60.8474 81.8002 62.8457 85.2002C64.8439 88.6 67.7411 91.3002 71.0381 92.7002C74.1353 94.1002 77.2327 94.7998 80.0303 94.7998C86.6244 94.7998 92.5193 91.1 97.1152 84.2002L97.6152 83.0996C95.4172 84.1996 91.2209 85.9999 87.624 86C85.8256 86 84.1272 85.4997 82.4287 84.2998C73.1369 78.0999 76.3335 70.7 82.6279 59.2002C85.3256 54.3002 88.1233 49.2996 89.3223 44.0996C90.6211 38.4997 91.82 30.4001 87.0244 24.2002C84.7264 21.3002 81.3294 19.0996 76.7334 17.5996C72.0376 15.9996 65.9429 15.1996 58.6494 15.0996H56.251Z" fill="black"/>
<path d="M165.3 15.6H153.2V94H165.3V15.6Z" fill="black"/>
<path d="M224.7 94H212.6V88.9C209.7 92.3 204.5 95.2 198.2 95.2C186 95.2 179.4 87.1 179.4 75.3V40.4H191.5V73.2C191.5 79.8 194.6 84.2 201.5 84.2C206.7 84.2 211.3 80.9 212.6 75.6V40.4H224.7V94Z" fill="black"/>
<path d="M251.8 15.6H239.7V94H251.8V15.6Z" fill="black"/>
<path d="M311.3 94H299.2V88.9C296.3 92.3 291.1 95.2 284.8 95.2C272.6 95.2 266 87.1 266 75.3V40.4H278.1V73.2C278.1 79.8 281.2 84.2 288.1 84.2C293.3 84.2 297.9 80.9 299.2 75.6V40.4H311.3V94Z" fill="black"/>
<path d="M338.3 15.6H326.2V94H338.3V15.6Z" fill="black"/>
<path d="M397.4 77.4001C395.6 88.0001 387.7 95.3001 374.8 95.3001C359.8 95.3001 349.5 84.0001 349.5 67.4001C349.5 51.4001 360 39.3 374.6 39.3C389.7 39.3 397.9 50 397.9 65.7V70H361.3C361.7 79.4 367.1 85.1 374.8 85.1C380.6 85.1 384.9 82.6001 386.3 77.4001H397.4ZM361.7 61.2001H386C385.9 54.7001 382.1 49.4001 374.8 49.4001C368.1 49.4001 363.2 53.5001 361.7 61.2001Z" fill="black"/>
<path d="M464.5 39.3C475.5 39.3 481.9 47.0001 481.9 59.2001V94.1H469.8V61.2001C469.8 54.6 466.9 50.2001 461 50.2001C456.7 50.2001 452.6 52.9001 451.5 58.2001V94.2H439.4V61.3C439.4 54.7 436.5 50.3 430.6 50.3C426.3 50.3 422.2 53 421.1 58.3V94.3001H409V40.7001H421.1V45.2001C423.6 41.8001 428.5 39.5 434.5 39.5C440.5 39.5 445.8 42.5 448.6 46.6C452.3 42 457.3 39.3 464.5 39.3Z" fill="black"/>
<path d="M517.8 95.1999C502.7 95.1999 492.3 83.5999 492.3 67.1999C492.3 50.7999 502.7 39.2 517.8 39.2C532.9 39.2 543.3 50.7999 543.3 67.1999C543.3 83.6999 532.9 95.1999 517.8 95.1999ZM517.8 49.5999C509.1 49.5999 504.4 57.0999 504.4 67.1999C504.4 77.2999 509.1 84.8 517.8 84.8C526.5 84.8 531.2 77.2999 531.2 67.1999C531.2 57.0999 526.5 49.5999 517.8 49.5999Z" fill="black"/>
<path d="M554.5 40.5H566.6V45.6C569.5 42.2 574.8 39.3 581.1 39.3C593.3 39.3 600 47.4001 600 59.2001V94.1H587.9V61.2001C587.9 54.6 584.6 50.2001 577.8 50.2001C572.6 50.2001 567.9 53.5 566.6 58.8V94H554.5V40.5Z" fill="black"/>
</g>
<defs>
<clipPath id="clip0_44_53">
<rect width="600" height="115" fill="white"/>
</clipPath>
</defs>
</svg>
