<svg width="115" height="115" viewBox="0 0 115 115" fill="none" xmlns="http://www.w3.org/2000/svg">
<path d="M57.4502 0C89.2225 8.18402e-05 115 25.8 115 57.5C115 89.2 89.2225 115 57.4502 115C25.7777 115 0 89.3 0 57.5C0 25.8 25.6778 0 57.4502 0ZM56.251 15.0996C48.9575 15.1996 42.8628 15.9997 38.167 17.5996C33.571 19.0996 30.174 21.3002 27.876 24.2002C23.0803 30.4001 24.2793 38.4996 25.5781 44.0996C26.7771 49.2996 29.5748 54.3002 32.2725 59.2002C38.6668 70.7 41.7635 78.0999 32.4717 84.2998C30.7732 85.3998 29.0748 86 27.2764 86C23.6795 86 19.4832 84.1996 17.2852 83.0996L17.7842 84.0996C22.3802 90.9996 28.2759 94.7002 34.8701 94.7002C37.7675 94.7001 40.7651 93.9995 43.8623 92.5996C47.1592 91.0996 50.0565 88.4995 52.0547 85.0996C54.0528 81.6997 54.7525 77.9997 54.2529 74.7998C53.5535 71.8999 52.0542 68.0002 50.2559 63.4004C45.6599 51.5005 39.3663 35.3004 44.8613 27.4004C47.1593 24.1004 51.2556 22.4004 57.4502 22.4004C63.6447 22.4004 67.7411 24.1004 70.0391 27.4004C75.4341 35.3005 69.1396 51.5005 64.6436 63.4004C62.8452 68.0001 61.3469 71.8999 60.6475 74.7998C60.048 78.0998 60.8474 81.8002 62.8457 85.2002C64.8439 88.6 67.7411 91.3002 71.0381 92.7002C74.1353 94.1002 77.2327 94.7998 80.0303 94.7998C86.6244 94.7998 92.5193 91.1 97.1152 84.2002L97.6152 83.0996C95.4172 84.1996 91.2209 85.9999 87.624 86C85.8256 86 84.1272 85.4997 82.4287 84.2998C73.1369 78.0999 76.3335 70.7 82.6279 59.2002C85.3256 54.3002 88.1233 49.2996 89.3223 44.0996C90.6211 38.4997 91.82 30.4001 87.0244 24.2002C84.7264 21.3002 81.3294 19.0996 76.7334 17.5996C72.0376 15.9996 65.9429 15.1996 58.6494 15.0996H56.251Z" fill="white"/>
</svg>
